<svg xmlns="http://www.w3.org/2000/svg" width="46" height="46" viewBox="0 0 48 48">
    <path fill="#fbc02d" d="M43.6 20.5H42V20H24v8h11.3c-1.6 4.6-6 8-11.3 8-6.6 0-12-5.4-12-12s5.4-12 12-12c3.1 0 5.9 1.2 8 3.1l6-6C34.6 6.1 29.6 4 24 4 12.9 4 4 12.9 4 24s8.9 20 20 20c11 0 20-9 20-20 0-1.3-.1-2.7-.4-3.5z"/>
    <path fill="#e53935" d="M6.3 14.6l6.6 4.8C14.5 16.1 18.9 14 24 14c3.1 0 5.9 1.2 8 3.1l6-6C34.6 6.1 29.6 4 24 4c-7.6 0-14.2 3.3-18.7 8.6z"/>
    <path fill="#4caf50" d="M24 44c5.3 0 10.3-2 14.1-5.3l-6.5-5.4C29.8 34.8 27 36 24 36c-5.3 0-9.8-3.4-11.4-8l-6.6 5.1C9.6 40.8 16.2 44 24 44z"/>
    <path fill="#1565c0" d="M43.6 20.5H42V20H24v8h11.3c-0.9 2.5-2.4 4.6-4.5 6.2l6.5 5.4c-0.5 0.5 6.7-4.9 6.7-14.1 0-1.3-.1-2.7-.4-3.5z"/>
  </svg>
  